<?xml version="1.0" encoding="UTF-8"?>
<svg id="Layer_1" data-name="Layer 1" xmlns="http://www.w3.org/2000/svg" viewBox="0 0 811.73 121.19">
  <defs>
    <style>
      .cls-1 {
        fill: #ca9e67;
      }
    </style>
  </defs>
  <polygon class="cls-1" points="811.73 45.44 811.62 45.44 811.62 22.72 789.01 22.72 789.01 98.46 751.02 98.46 751.02 45.44 750.91 45.44 750.91 22.72 728.3 22.72 728.3 121.18 728.3 121.18 728.3 121.18 800.37 121.18 811.73 121.19 811.73 121.18 811.73 121.18 811.73 98.46 811.73 98.46 811.73 45.44"/>
  <polygon class="cls-1" points="531 22.72 531 22.72 531 121.18 553.72 121.18 553.72 45.44 591.71 45.44 591.71 121.18 614.43 121.18 614.43 45.44 614.43 45.44 614.43 22.72 531 22.72 531 22.72"/>
  <polygon class="cls-1" points="493.01 98.46 455.02 98.46 455.02 22.72 432.29 22.72 432.29 98.46 432.29 98.46 432.29 121.18 515.73 121.18 515.73 121.18 515.73 121.18 515.73 22.72 493.01 22.72 493.01 98.46"/>
  <polygon class="cls-1" points="0 22.72 0 60.59 60.69 60.59 60.69 121.18 98.56 121.18 98.56 22.72 60.69 22.72 0 22.72"/>
  <polygon class="cls-1" points="30.38 98.46 0 98.46 0 121.18 53.1 121.18 53.1 98.46 53.1 68.08 30.38 68.08 30.38 98.46"/>
  <rect class="cls-1" x="0" y="68.14" width="22.72" height="22.72"/>
  <polygon class="cls-1" points="159.12 22.72 136.51 22.72 136.51 121.18 159.23 121.18 159.23 45.44 219.93 45.44 219.93 22.72 159.12 22.72 159.12 22.72"/>
  <rect class="cls-1" x="235.12" y="22.72" width="83.43" height="22.72"/>
  <rect class="cls-1" x="235.12" y="98.46" width="83.43" height="22.72"/>
  <rect class="cls-1" x="235.12" y="60.59" width="83.43" height="22.72"/>
  <polygon class="cls-1" points="652.2 0 629.59 0 629.59 121.18 652.31 121.18 652.31 121.18 713.13 121.18 713.13 98.46 652.31 98.46 652.31 45.44 713.13 45.44 713.13 22.72 652.2 22.72 652.2 0"/>
  <path class="cls-1" d="M417.15,22.72h-60.82V0h-22.61V22.72h0v22.72h0V121.18s0,0,0,0h0s83.43,0,83.43,0v-15.03h0V22.72h0Zm-22.72,22.72v53.02h-37.99V45.44h37.99Z"/>
</svg>